<?xml version="1.0" encoding="iso-8859-1"?>
<!-- Uploaded to: SVG Repo, www.svgrepo.com, Generator: SVG Repo Mixer Tools -->
<svg height="800px" width="800px" version="1.1" id="Layer_1" xmlns="http://www.w3.org/2000/svg" xmlns:xlink="http://www.w3.org/1999/xlink" 
	 viewBox="0 0 512 512" xml:space="preserve">
<g transform="translate(1 1)">
	<polygon style="fill:#FD9808;" points="502.467,446.893 7.533,446.893 7.533,173.827 255,62.893 502.467,173.827 	"/>
	<polygon style="fill:#FFDD09;" points="476.867,446.893 7.533,446.893 7.533,173.827 242.2,62.893 476.867,173.827 	"/>
	<path style="fill:#FFFFFF;" d="M36.547,161.027c0,3.413,1.707,7.68,5.973,8.533l-9.387,4.267v273.067h-25.6V173.827L36.547,161.027
		z"/>
	<polygon style="fill:#DB4D6C;" points="41.667,446.893 468.333,446.893 468.333,412.76 41.667,412.76 	"/>
	<g>
		<path style="fill:#1CD759;" d="M408.6,267.693c0-37.547,30.72-68.267,68.267-68.267
			C476.867,236.973,446.147,267.693,408.6,267.693"/>
		<path style="fill:#1CD759;" d="M408.6,370.093c0-37.547,30.72-68.267,68.267-68.267
			C476.867,339.373,446.147,370.093,408.6,370.093"/>
		<path style="fill:#1CD759;" d="M340.333,250.627c37.547,0,68.267,30.72,68.267,68.267
			C371.053,318.893,340.333,288.173,340.333,250.627"/>
		<path style="fill:#1CD759;" d="M101.4,267.693c0-37.547,30.72-68.267,68.267-68.267
			C169.667,236.973,138.947,267.693,101.4,267.693"/>
		<path style="fill:#1CD759;" d="M255,267.693c0-37.547,30.72-68.267,68.267-68.267C323.267,236.973,292.547,267.693,255,267.693"/>
		<path style="fill:#1CD759;" d="M255,370.093c0-37.547,30.72-68.267,68.267-68.267C323.267,339.373,292.547,370.093,255,370.093"/>
		<path style="fill:#1CD759;" d="M186.733,250.627c37.547,0,68.267,30.72,68.267,68.267
			C217.453,318.893,186.733,288.173,186.733,250.627"/>
		<path style="fill:#1CD759;" d="M101.4,370.093c0-37.547,30.72-68.267,68.267-68.267
			C169.667,339.373,138.947,370.093,101.4,370.093"/>
		<path style="fill:#1CD759;" d="M33.133,250.627c37.547,0,68.267,30.72,68.267,68.267
			C63.853,318.893,33.133,288.173,33.133,250.627"/>
	</g>
	<path d="M502.467,455.427H7.533c-5.12,0-8.533-3.413-8.533-8.533V173.827c0-3.413,1.707-6.827,5.12-7.68L251.587,55.213
		c2.56-0.853,5.12-0.853,6.827,0L505.88,166.147c3.413,1.707,5.12,4.267,5.12,7.68v273.067
		C511,452.013,507.587,455.427,502.467,455.427z M16.067,438.36h477.867V178.947L255,72.28L16.067,178.947V438.36z"/>
	<path d="M468.333,455.427H41.667c-5.12,0-8.533-3.413-8.533-8.533V412.76c0-5.12,3.413-8.533,8.533-8.533h426.667
		c5.12,0,8.533,3.413,8.533,8.533v34.133C476.867,452.013,473.453,455.427,468.333,455.427z M50.2,438.36h409.6v-17.067H50.2V438.36
		z"/>
	<path d="M255,421.293c-5.12,0-8.533-3.413-8.533-8.533V184.067c0-5.12,3.413-8.533,8.533-8.533s8.533,3.413,8.533,8.533V412.76
		C263.533,417.027,260.12,421.293,255,421.293z"/>
	<path d="M255,276.227c-5.12,0-8.533-3.413-8.533-8.533c0-42.667,34.133-76.8,76.8-76.8c5.12,0,8.533,3.413,8.533,8.533
		C331.8,242.093,297.667,276.227,255,276.227z M313.88,208.813c-25.6,4.267-46.08,23.893-49.493,49.493
		C289.987,254.04,309.613,234.413,313.88,208.813z"/>
	<path d="M255,378.627c-5.12,0-8.533-3.413-8.533-8.533c0-42.667,34.133-76.8,76.8-76.8c5.12,0,8.533,3.413,8.533,8.533
		C331.8,344.493,297.667,378.627,255,378.627z M313.88,311.213c-25.6,4.267-46.08,23.893-49.493,49.493
		C289.987,356.44,309.613,336.813,313.88,311.213z"/>
	<path d="M255,327.427c-42.667,0-76.8-34.133-76.8-76.8c0-5.12,3.413-8.533,8.533-8.533c42.667,0,76.8,34.133,76.8,76.8
		C263.533,324.013,260.12,327.427,255,327.427z M196.12,260.013c4.267,25.6,23.893,46.08,49.493,49.493
		C241.347,283.907,221.72,264.28,196.12,260.013z"/>
	<path d="M101.4,421.293c-5.12,0-8.533-3.413-8.533-8.533V184.067c0-5.12,3.413-8.533,8.533-8.533c5.12,0,8.533,3.413,8.533,8.533
		V412.76C109.933,417.027,106.52,421.293,101.4,421.293z"/>
	<path d="M101.4,276.227c-5.12,0-8.533-3.413-8.533-8.533c0-42.667,34.133-76.8,76.8-76.8c5.12,0,8.533,3.413,8.533,8.533
		C178.2,242.093,144.067,276.227,101.4,276.227z M160.28,208.813c-25.6,4.267-46.08,23.893-49.493,49.493
		C136.387,254.04,156.013,234.413,160.28,208.813z"/>
	<path d="M101.4,378.627c-5.12,0-8.533-3.413-8.533-8.533c0-42.667,34.133-76.8,76.8-76.8c5.12,0,8.533,3.413,8.533,8.533
		C178.2,344.493,144.067,378.627,101.4,378.627z M160.28,311.213c-25.6,4.267-46.08,23.893-49.493,49.493
		C136.387,356.44,156.013,336.813,160.28,311.213z"/>
	<path d="M101.4,327.427c-42.667,0-76.8-34.133-76.8-76.8c0-5.12,3.413-8.533,8.533-8.533c42.667,0,76.8,34.133,76.8,76.8
		C109.933,324.013,106.52,327.427,101.4,327.427z M42.52,260.013c4.267,25.6,23.893,46.08,49.493,49.493
		C87.747,283.907,68.12,264.28,42.52,260.013z"/>
	<path d="M408.6,421.293c-5.12,0-8.533-3.413-8.533-8.533V184.067c0-5.12,3.413-8.533,8.533-8.533c5.12,0,8.533,3.413,8.533,8.533
		V412.76C417.133,417.027,413.72,421.293,408.6,421.293z"/>
	<path d="M408.6,276.227c-5.12,0-8.533-3.413-8.533-8.533c0-42.667,34.133-76.8,76.8-76.8c5.12,0,8.533,3.413,8.533,8.533
		C485.4,242.093,451.267,276.227,408.6,276.227z M467.48,208.813c-25.6,4.267-46.08,23.893-49.493,49.493
		C443.587,254.04,463.213,234.413,467.48,208.813z"/>
	<path d="M408.6,378.627c-5.12,0-8.533-3.413-8.533-8.533c0-42.667,34.133-76.8,76.8-76.8c5.12,0,8.533,3.413,8.533,8.533
		C485.4,344.493,451.267,378.627,408.6,378.627z M467.48,311.213c-25.6,4.267-46.08,23.893-49.493,49.493
		C443.587,356.44,463.213,336.813,467.48,311.213z"/>
	<path d="M408.6,327.427c-42.667,0-76.8-34.133-76.8-76.8c0-5.12,3.413-8.533,8.533-8.533c42.667,0,76.8,34.133,76.8,76.8
		C417.133,324.013,413.72,327.427,408.6,327.427z M349.72,260.013c4.267,25.6,23.893,46.08,49.493,49.493
		C394.947,283.907,375.32,264.28,349.72,260.013z"/>
</g>
</svg>